<svg xmlns="http://www.w3.org/2000/svg" xmlns:xlink="http://www.w3.org/1999/xlink" width="516.984" height="440.214" viewBox="0 0 516.984 440.214">
  <defs>
    <linearGradient id="linear-gradient" x1="1.251" y1="0.29" x2="0" y2="0.846" gradientUnits="objectBoundingBox">
      <stop offset="0" stop-color="#2f74b4" stop-opacity="0.341"/>
      <stop offset="0.605" stop-color="#4381ba" stop-opacity="0.361"/>
      <stop offset="1" stop-color="#b6d0de" stop-opacity="0.22"/>
    </linearGradient>
    <linearGradient id="linear-gradient-2" x1="0.546" y1="0.188" x2="0.43" y2="0.797" gradientUnits="objectBoundingBox">
      <stop offset="0" stop-color="#d7f2fc"/>
      <stop offset="1" stop-color="#a4d9f2"/>
    </linearGradient>
    <linearGradient id="linear-gradient-3" x1="0.472" y1="1.001" x2="0.528" y2="-0.001" gradientUnits="objectBoundingBox">
      <stop offset="0" stop-color="#61b3e1"/>
      <stop offset="1" stop-color="#2d72b4"/>
    </linearGradient>
    <linearGradient id="linear-gradient-4" x1="0.11" y1="0.992" x2="0.89" y2="0.008" gradientUnits="objectBoundingBox">
      <stop offset="0" stop-color="#9dceec"/>
      <stop offset="1" stop-color="#5facdd"/>
    </linearGradient>
    <linearGradient id="linear-gradient-5" x1="0.996" y1="0.5" x2="0.006" y2="0.5" gradientUnits="objectBoundingBox">
      <stop offset="0" stop-color="#255c93"/>
      <stop offset="1" stop-color="#022541"/>
    </linearGradient>
    <linearGradient id="linear-gradient-6" x1="0.705" y1="0.7" x2="0.314" y2="0.151" gradientUnits="objectBoundingBox">
      <stop offset="0" stop-color="#ffd7e0"/>
      <stop offset="1" stop-color="#f5b3bf"/>
    </linearGradient>
    <linearGradient id="linear-gradient-7" x1="0.969" y1="0.424" x2="0.016" y2="0.669" xlink:href="#linear-gradient-6"/>
    <linearGradient id="linear-gradient-8" x1="0.97" y1="0.415" x2="0.027" y2="0.582" xlink:href="#linear-gradient-5"/>
    <linearGradient id="linear-gradient-9" x1="0.667" y1="0.753" x2="0.371" y2="0.35" xlink:href="#linear-gradient-5"/>
    <linearGradient id="linear-gradient-10" x1="1.077" y1="0.572" x2="-0.053" y2="0.4" xlink:href="#linear-gradient-6"/>
    <linearGradient id="linear-gradient-11" x1="0.995" y1="0.485" x2="0.007" y2="0.487" xlink:href="#linear-gradient-2"/>
    <linearGradient id="linear-gradient-12" x1="0.999" y1="0.502" x2="0.014" y2="0.502" xlink:href="#linear-gradient-5"/>
    <linearGradient id="linear-gradient-13" x1="-0.013" y1="0.648" x2="1.013" y2="0.352" xlink:href="#linear-gradient-5"/>
    <linearGradient id="linear-gradient-14" x1="0.741" y1="0.062" x2="0.259" y2="0.938" xlink:href="#linear-gradient-5"/>
    <linearGradient id="linear-gradient-15" x1="0.86" y1="0.544" x2="0.114" y2="0.473" xlink:href="#linear-gradient-6"/>
    <linearGradient id="linear-gradient-16" x1="0.53" y1="1.145" x2="0.476" y2="-0.051" xlink:href="#linear-gradient-6"/>
    <linearGradient id="linear-gradient-17" x1="0.509" y1="0.021" x2="0.499" y2="0.868" xlink:href="#linear-gradient-2"/>
    <linearGradient id="linear-gradient-18" x1="0.5" y1="1" x2="0.5" gradientUnits="objectBoundingBox">
      <stop offset="0" stop-color="#6eb6e1"/>
      <stop offset="1" stop-color="#2e6eb4"/>
    </linearGradient>
  </defs>
  <g id="Group_12351" data-name="Group 12351" transform="translate(-800 -273.494)">
    <g id="bg" transform="translate(799.279 533.365)">
      <path id="Shape" d="M48.591,33.526C107.511,9.869,287.26-23.15,434.125,23.783c69.685,22.269,104.714,61.755,68.2,100.675-38.7,41.25-250.063,73.588-375.791,44.074C-61.363,124.425,3.184,51.757,48.591,33.526Z" transform="translate(0.721 0.39)" fill="url(#linear-gradient)"/>
    </g>
    <g id="Group_12347" data-name="Group 12347" transform="translate(203.002 50.544)">
      <path id="Path_26" data-name="Path 26" d="M4275.863,1925.337c4.73,2.879,6.021,7.3,3.847,13.769-.9,2.671-5.065,7.648-9.268,7.848-24.028,1.138-62.858-8.227-91.632-38.7.972-7.05,4.654-9.037,4.654-9.037a316.276,316.276,0,0,0,51.072,17.8C4245.367,1919.8,4262.734,1917.345,4275.863,1925.337Z" transform="translate(-3417.9 -1553.396)" fill="url(#linear-gradient-2)"/>
      <path id="Path_27" data-name="Path 27" d="M3844.415,1675.866s2.413-17.533-8.112-28c0,0-7.711-5.834-2.9-24.563l25.844-100.966c.065.015.107.027.115.029,4.811-18.729,14.377-20.124,14.377-20.124,14.267-4.1,20.6-20.623,20.6-20.623s7.28-17.145-5.11-32.211l-5.193-1.335-5.33,20.751-20.117,7.766-13.808-16.479,5.33-20.751-5.193-1.333c-18.114,7.231-20,25.762-20,25.762l.034.007s-2.416,17.535,8.11,28c0,0,7.713,5.834,2.9,24.562L3810,1617.3c-4.811,18.73-14.378,20.121-14.378,20.121-14.265,4.1-20.6,20.625-20.6,20.625s-7.276,17.147,5.111,32.211l5.193,1.335,5.326-20.738,20.037-7.615,13.888,16.328-5.326,20.736,5.193,1.335c18.118-7.231,20-25.762,20-25.762Z" transform="translate(-3085.902 -1176.183)" fill="url(#linear-gradient-3)"/>
      <path id="Path_28" data-name="Path 28" d="M4004.331,1937.036l-4.507-1.156a3.317,3.317,0,0,1-2.136-4.161l30.977-120.613a3.322,3.322,0,0,1,3.879-2.618l4.507,1.158a3.32,3.32,0,0,1,2.132,4.163L4008.2,1934.419A3.318,3.318,0,0,1,4004.331,1937.036Z" transform="translate(-3269.656 -1479.113)" fill="url(#linear-gradient-4)"/>
      <path id="Path_29" data-name="Path 29" d="M4693.412,1982.59s63.177,9.261,82.968,18.648c.379,2.413-2.03,4.7-2.03,4.7s-64.7-19.666-84.11-21.441C4689.606,1984.24,4693.412,1982.59,4693.412,1982.59Z" transform="translate(-3836.147 -1621.585)" fill="url(#linear-gradient-5)"/>
      <path id="Path_30" data-name="Path 30" d="M4009.488,3010.306l-17.184,13.516s-.189,3.558-4.58,2.557-9.991-7.172-10.572-9.013c-1.206-3.831,10.621,1.431,10.621,1.431l15.661-15.277Z" transform="translate(-3252.892 -2456.616)" fill="url(#linear-gradient-6)"/>
      <path id="Path_31" data-name="Path 31" d="M3953.632,3054.567s-14.1-8.318-17.144-6.4c-4.865,3.068,13.768,17.943,17.987,17.688,4.046-.239,4.27-5.594,4.27-5.594S3954.7,3060.357,3953.632,3054.567Z" transform="translate(-3219.045 -2492.9)" fill="#192267"/>
      <path id="Path_33" data-name="Path 33" d="M5437.13,2798.812l22.426-4.443s2.433-3.815,5.858-.894,5.534,10.985,5.2,12.883c-.707,3.957-8.52-5.406-8.52-5.406l-20.9,7.147Z" transform="translate(-4447.096 -2283.917)" fill="url(#linear-gradient-7)"/>
      <path id="Path_34" data-name="Path 34" d="M5564.565,2790.134s8.642,13.906,12.23,13.615c5.732-.466-3.891-22.28-7.75-24.01-3.7-1.661-6.376,2.982-6.376,2.982S5566.3,2784.508,5564.565,2790.134Z" transform="translate(-4549.776 -2273.289)" fill="#192267"/>
      <path id="Path_36" data-name="Path 36" d="M4728.922,2443.17c18.728-7.542,28.094,22.156,60.291,75.729,27.313-5.421,45.264-7.764,64.716-10.823a111.158,111.158,0,0,1,4.712,11.594c-17.571,8.25-48.452,21.5-73.181,25.541a27.146,27.146,0,0,1-19.126-4.073c-17.385-11.271-31.774-30.4-39.919-42.78-4.62-7.025-19.165-32.394-19.165-32.394S4710.194,2450.714,4728.922,2443.17Z" transform="translate(-3850.118 -1997.35)" fill="url(#linear-gradient-8)"/>
      <path id="Path_37" data-name="Path 37" d="M4066.575,2542.752l-7.265-9.2c14.268-17.5,34.562-44.178,41.975-50.464,12.518-10.608,76.03-42.982,76.03-42.982s28.12-14.935,32.4-18.478c5.486-4.536,12.207-3.45,15.39,5.57,2.079,5.891,5.949,10.6.376,28.477-8.214,26.343-56.352,31.76-107.439,50.045C4099.376,2520.022,4079.671,2534.695,4066.575,2542.752Z" transform="translate(-3320.16 -1978.546)" fill="url(#linear-gradient-9)"/>
      <path id="Path_38" data-name="Path 38" d="M4647.76,1945.549s-1.149-2.662-3.744-8.549c-5.6-12.706-7.1-23.462-9.307-24.458-2.56-1.158-10.06-1.928-12.465-1.224-1.191.348.725,9,.258,13.22-1.054,9.581-2.91,17.863-1.866,21.106C4622.814,1952.416,4640.13,1955.413,4647.76,1945.549Z" transform="translate(-3779.023 -1563.07)" fill="url(#linear-gradient-10)"/>
      <path id="Path_39" data-name="Path 39" d="M4613.908,2003.945c.75.117,13.591-1.16,20.651-10.343,7.321-1.136,13.789,4.92,13.789,4.92s33.819,23.245,34.653,86.266c.209,16.009-34.7,11.437-35.984,11.149-6.744-1.5-19.5-1.715-24.578-10.455-7.924-13.644-9.73-46.773-10.022-59.732C4611.976,2006.221,4613.908,2003.945,4613.908,2003.945Z" transform="translate(-3772.499 -1630.476)" fill="url(#linear-gradient-11)"/>
      <path id="Path_40" data-name="Path 40" d="M4616.667,2057.521l-2.881-8.143-1.664-.428s-1.726,8.168-.925,12.835c.193,1.127,1.6.823,1.6.823Zm-3.533,3.421s4.682,32.04,52.556,34.323c1.513,1.768,7.264,6.513,7.264,6.513l-6.619,6.737s-52.062,2.633-55.06-47.243A1.156,1.156,0,0,1,4613.134,2060.942Zm66.8,75.222-.24,4.066s-25.021,9.119-52.312-1.628c.129.406-.34-2.36-.34-2.36S4652.784,2143.281,4679.935,2136.165Z" transform="translate(-3771.382 -1675.862)" fill="#142d65"/>
      <path id="Path_43" data-name="Path 43" d="M4677.145,2045.635s-75.483-15.477-85.884-55.564c-1.267-7.739,11.8-7.486,11.8-7.486l-.126,1.522s-11.9-.093-8.88,7.231c7.992,19.409,53.344,47.128,83.221,49.222A46.534,46.534,0,0,1,4677.145,2045.635Z" transform="translate(-3755.178 -1621.581)" fill="url(#linear-gradient-12)"/>
      <path id="Path_44" data-name="Path 44" d="M5036.374,2111.8l23.314-45.312a4.633,4.633,0,0,1,6.24-2l31.19,16.049a4.63,4.63,0,0,1,2,6.24L5075.8,2132.09a4.633,4.633,0,0,1-6.24,2l-31.186-16.045A4.632,4.632,0,0,1,5036.374,2111.8Z" transform="translate(-4118.891 -1688.15)" fill="url(#linear-gradient-13)"/>
      <path id="Path_45" data-name="Path 45" d="M5006.638,2093.746l25.436-49.431a3.976,3.976,0,0,1,5.35-1.713l18.633,9.591a3.966,3.966,0,0,1,1.715,5.344l-25.436,49.433a3.974,3.974,0,0,1-5.348,1.715l-18.635-9.591A3.968,3.968,0,0,1,5006.638,2093.746Z" transform="translate(-4094.63 -1670.308)" fill="url(#linear-gradient-14)"/>
      <path id="Path_47" data-name="Path 47" d="M4585.629,1785.019a28.715,28.715,0,0,1,8.471,32.266c-2.128,9.6-13.414,15.741-19.028,2.433C4566.791,1800.087,4573.925,1777.237,4585.629,1785.019Z" transform="translate(-3739.076 -1458.713)" fill="url(#linear-gradient-15)"/>
      <path id="Path_48" data-name="Path 48" d="M4563.824,1759.227s-3.662-5.035-1.021-12.384c3.154-8.782,17.568-12.111,20.463-9.563s-.031,5.215-.031,5.215,4.811-2.44,6.7.818c2.143,3.689-4.977,5.779-4.377,5.634s6.116-2.4,7.842,1.983c1.819,4.634-5.562,3.378-5.562,3.378s.3,6.5.08,7.12-4.188-9.74-8.709-10.647a16.8,16.8,0,0,0-12.531,2.6A8.087,8.087,0,0,0,4563.824,1759.227Z" transform="translate(-3731.19 -1420.262)" fill="#142d65"/>
      <path id="Path_50" data-name="Path 50" d="M4194.207,2064.3c-.5-.137-18.114-2.613-21.871-3.334-.883-.171-1.968-2.68-4.1-3.833-1.923-1.04-4.224-2.221-5.067-.823-1.411,2.338-7.466-3.8-7.587,4.792-.067,5.14,4.78,7.757,13.593,7.584,1.6-.031,16.532,4.221,17.544,3.929C4189.893,2066.044,4194.207,2064.3,4194.207,2064.3Z" transform="translate(-3398.898 -1681.357)" fill="url(#linear-gradient-16)"/>
      <path id="Path_51" data-name="Path 51" d="M4351.3,2042.274c5.614,1.118,8.418,4.849,8.551,11.668.057,2.819-2.8,8.008-6.3,10.512-15.776,11.29-64.14,13.418-102.807-5.588-1.513-6.969,1.384-10.077,1.384-10.077a338.434,338.434,0,0,0,55.988-.43C4319.645,2047.331,4335.714,2039.169,4351.3,2042.274Z" transform="translate(-3476.379 -1669.828)" fill="url(#linear-gradient-17)"/>
      <path id="Path_52" data-name="Path 52" d="M773.229,1630.81H681.573a6.611,6.611,0,0,0-6.573,6.612v50.213a6.61,6.61,0,0,0,6.573,6.61H694.4l-2.488,20.049,18-20.049h63.316a6.61,6.61,0,0,0,6.573-6.61v-50.213A6.611,6.611,0,0,0,773.229,1630.81Z" transform="translate(199.909 -1407.86)" fill="url(#linear-gradient-18)"/>
      <path id="Path_53" data-name="Path 53" d="M762.709,1749.694a2.1,2.1,0,0,1,2.125-2.232,2.218,2.218,0,1,1-2.125,2.232Zm.779-4.96-.071-.921a8.142,8.142,0,0,1,2.2-6.131c1.593-1.877,2.48-3.259,2.48-4.854,0-1.806-1.134-3.01-3.367-3.046a6.291,6.291,0,0,0-3.578,1.1l-.85-2.232a9.287,9.287,0,0,1,5.066-1.417c4.075,0,5.918,2.515,5.918,5.208,0,2.411-1.346,4.146-3.046,6.166a7,7,0,0,0-2.019,5.209l.035.921Zm13.606,4.96a2.094,2.094,0,0,1,2.125-2.232,2.218,2.218,0,1,1-2.125,2.232Zm.779-4.96-.071-.921a8.135,8.135,0,0,1,2.2-6.131c1.593-1.877,2.48-3.259,2.48-4.854,0-1.806-1.134-3.01-3.367-3.046a6.291,6.291,0,0,0-3.578,1.1l-.852-2.232a9.3,9.3,0,0,1,5.068-1.417c4.075,0,5.918,2.515,5.918,5.208,0,2.411-1.346,4.146-3.048,6.166a7,7,0,0,0-2.019,5.209l.036.921Zm13.606,4.96a2.094,2.094,0,0,1,2.125-2.232,2.218,2.218,0,1,1-2.125,2.232Zm.779-4.96-.071-.921a8.132,8.132,0,0,1,2.2-6.131c1.6-1.877,2.482-3.259,2.482-4.854,0-1.806-1.134-3.01-3.367-3.046a6.3,6.3,0,0,0-3.58,1.1l-.85-2.232a9.293,9.293,0,0,1,5.068-1.417c4.075,0,5.918,2.515,5.918,5.208,0,2.411-1.347,4.146-3.048,6.166a7,7,0,0,0-2.019,5.209l.036.921Zm10.528-5.173a15.26,15.26,0,1,1,15.261,15.259A15.279,15.279,0,0,1,802.786,1739.561Zm1.553,0a13.708,13.708,0,1,0,13.708-13.708A13.722,13.722,0,0,0,804.34,1739.561Zm6.917,7.578h-1.233a9.7,9.7,0,0,1,16.044,0h-1.233a8.706,8.706,0,0,0-13.578,0Zm1.282-12.606a2.514,2.514,0,1,1-2.515,2.513A2.513,2.513,0,0,1,812.539,1734.533Zm11.016,0a2.514,2.514,0,1,1-2.515,2.513A2.513,2.513,0,0,1,823.555,1734.533Z" transform="translate(130.141 -1484.326)" fill="#fff" fill-rule="evenodd"/>
    </g>
  </g>
</svg>
