<svg version="1.1" xmlns="http://www.w3.org/2000/svg" xmlns:xlink="http://www.w3.org/1999/xlink" x="0px" y="0px" width="500px"
	 height="372.6px" viewBox="0 0 500 372.6" style="overflow:visible;enable-background:new 0 0 500 372.6;" xml:space="preserve">
<style type="text/css">
	.st0{fill:#EBEBEB;}
	.st1{fill:#E6E6E6;}
	.st2{fill:#F0F0F0;}
	.st3{fill:#FFFFFF;}
	.st4{fill:#E0E0E0;}
	.st5{fill:#F5F5F5;}
	.st6{fill:#FAFAFA;}
	.st7{fill:#ED3338;}
	.st8{opacity:0.3;fill:#FFFFFF;}
	.st9{opacity:0.6;fill:#ED3338;}
	.st10{fill:#263238;}
	.st11{fill:#FF8B7B;}
	.st12{fill:#FF5652;}
	.st13{opacity:0.2;}
	.st14{opacity:0.4;}
	.st15{opacity:0.3;}
	.st16{opacity:0.3;fill:#ED3338;}
</style>
<defs>
</defs>
<g>
	<rect y="327.4" class="st0" width="500" height="0.2"/>
	<rect x="290.2" y="334.3" class="st0" width="25.5" height="0.2"/>
	<rect x="395.1" y="339.7" class="st0" width="60.3" height="0.2"/>
	<rect x="222.5" y="334.4" class="st0" width="62.3" height="0.2"/>
	<rect x="169" y="341.9" class="st0" width="13" height="0.2"/>
	<rect x="194.7" y="341.9" class="st0" width="59.4" height="0.2"/>
	<rect x="52.5" y="337.6" class="st0" width="38.5" height="0.2"/>
	<path class="st0" d="M237,282.8H43.9c-3.1,0-5.7-2.6-5.7-5.7V5.7c0-3.1,2.6-5.7,5.7-5.7H237c3.1,0,5.7,2.6,5.7,5.7v271.4
		C242.7,280.3,240.2,282.8,237,282.8z M43.9,0.2c-3,0-5.5,2.4-5.5,5.5v271.4c0,3,2.4,5.5,5.5,5.5H237c3,0,5.5-2.4,5.5-5.5V5.7
		c0-3-2.4-5.5-5.5-5.5H43.9z"/>
	<path class="st0" d="M453.3,282.8H260.2c-3.1,0-5.7-2.6-5.7-5.7V5.7c0-3.1,2.6-5.7,5.7-5.7h193.1c3.1,0,5.7,2.6,5.7,5.7v271.4
		C459,280.3,456.5,282.8,453.3,282.8z M260.2,0.2c-3,0-5.5,2.4-5.5,5.5v271.4c0,3,2.4,5.5,5.5,5.5h193.1c3,0,5.5-2.4,5.5-5.5V5.7
		c0-3-2.4-5.5-5.5-5.5H260.2z"/>
</g>
<g>
	<g>
		<g>
			<polygon class="st1" points="196,240.7 129.6,240.7 125.5,194.2 191.9,194.2 			"/>
			<polygon class="st2" points="199.4,240.7 133,240.7 129,194.2 195.4,194.2 			"/>
			<polygon class="st3" points="142.1,230.7 139.9,204.2 186.3,204.2 188.5,230.7 			"/>
		</g>
		<g>
			<rect x="203.1" y="240.7" class="st1" width="7.8" height="86.7"/>
			<rect x="207.9" y="240.7" class="st2" width="5.4" height="86.7"/>
			
				<rect x="137.9" y="240.7" transform="matrix(-1 -1.224647e-16 1.224647e-16 -1 351.2875 491.0009)" class="st2" width="75.4" height="9.6"/>
			<rect x="132.8" y="250.3" class="st1" width="7.8" height="77.2"/>
			<rect x="137.7" y="250.3" class="st2" width="5.4" height="77.2"/>
			<rect x="77.4" y="250.3" class="st1" width="7.8" height="77.2"/>
			<rect x="82.2" y="250.3" class="st2" width="5.4" height="77.2"/>
			<rect x="153.8" y="250.3" class="st1" width="7.8" height="77.2"/>
			<rect x="158.6" y="250.3" class="st2" width="5.4" height="77.2"/>
			<rect x="77.4" y="240.7" class="st1" width="60.6" height="9.6"/>
		</g>
	</g>
	<g>
		<g>
			<rect x="129.5" y="24.5" class="st4" width="234.3" height="130.5"/>
			<rect x="130.7" y="24.5" class="st5" width="246" height="130.5"/>
			
				<rect x="192.5" y="-29.3" transform="matrix(-1.836970e-16 1 -1 -1.836970e-16 343.3876 -164.0102)" class="st3" width="122.4" height="238"/>
			<polygon class="st5" points="231.1,150.9 276,28.5 201.8,28.5 156.9,150.9 			"/>
			<polygon class="st5" points="302.4,150.9 347.4,28.5 291.4,28.5 246.5,150.9 			"/>
		</g>
	</g>
	<g>
		<g>
			<rect x="418.2" y="202.9" class="st1" width="19.9" height="124.6"/>
			<polygon class="st6" points="432.9,327.4 438.1,327.4 438.1,317.9 427.4,317.9 			"/>
			<rect x="234.5" y="202.9" class="st1" width="19.9" height="124.6"/>
			<rect x="249.9" y="202.9" class="st6" width="188.2" height="122"/>
			<path class="st1" d="M434.5,242.2H253.4v-34.5h181.1V242.2z M254.4,241.2h179.1v-32.5H254.4V241.2z"/>
			<path class="st1" d="M402.7,224.5H288.8c-5.3,0-10.4-4.3-14-11.7l-0.3-0.7H417l-0.3,0.7C413,220.2,408,224.5,402.7,224.5z
				 M276.1,213.1c3.4,6.6,8,10.4,12.7,10.4h113.8c4.7,0,9.3-3.8,12.7-10.4H276.1z"/>
			<polygon class="st6" points="255.1,327.4 249.9,327.4 249.9,317.9 260.6,317.9 			"/>
			<path class="st1" d="M434.5,281.1H253.4v-34.5h181.1V281.1z M254.4,280.1h179.1v-32.5H254.4V280.1z"/>
			<path class="st1" d="M402.7,263.4H288.8c-5.3,0-10.4-4.3-14-11.7l-0.3-0.7H417l-0.3,0.7C413,259.1,408,263.4,402.7,263.4z
				 M276.1,251.9c3.4,6.6,8,10.4,12.7,10.4h113.8c4.7,0,9.3-3.8,12.7-10.4H276.1z"/>
			<path class="st1" d="M434.5,319.9H253.4v-34.5h181.1V319.9z M254.4,318.9h179.1v-32.5H254.4V318.9z"/>
			<path class="st1" d="M402.7,302.2H288.8c-5.3,0-10.4-4.3-14-11.7l-0.3-0.7H417l-0.3,0.7C413,298,408,302.2,402.7,302.2z
				 M276.1,290.8c3.4,6.6,8,10.4,12.7,10.4h113.8c4.7,0,9.3-3.8,12.7-10.4H276.1z"/>
		</g>
	</g>
	<g>
		<polygon class="st1" points="121,219.3 121,221.7 119.4,221.7 118.2,240.7 99.3,240.7 98,221.7 96.5,221.7 96.5,219.3 		"/>
		<path class="st1" d="M114.8,172.3c-1.5-11.3-16.8-14.5-36.1-14.9c-18.4-0.4-24.3-6.9-24.3-6.9s0.1,26.4,26.6,35.9
			C106.1,195.4,116.3,183.6,114.8,172.3z"/>
		<path class="st1" d="M105.4,197.9c0.3-4.6,7.7-13.2,25.6-9.3c12.9,2.8,17.7-3.9,17.7-3.9s-1.2,18.9-20.6,24.6
			C109.6,214.6,104.8,206,105.4,197.9z"/>
		<path class="st1" d="M109.5,226.5c0.2,0,0.4-0.1,0.5-0.2c1.3-1.5,0.2-5.2-1.2-10.3c-1.9-6.5-4.2-14.6-2.2-20.5
			c1.1-3.3,2.5-6.2,3.8-9.1c2.8-5.9,5.2-11,3.2-16.4c-0.1-0.4-0.5-0.5-0.9-0.4c-0.4,0.1-0.5,0.5-0.4,0.9c1.8,4.8-0.4,9.4-3.2,15.3
			c-1.3,2.7-2.8,5.8-3.9,9.2c-2.1,6.3,0.3,14.6,2.2,21.3c1.1,3.9,2.3,8,1.5,9c-0.2,0.3-0.2,0.7,0.1,1
			C109.1,226.4,109.3,226.5,109.5,226.5z"/>
	</g>
</g>
<ellipse id="_x3C_Path_x3E__1_" class="st5" cx="250" cy="361.3" rx="193.9" ry="11.3"/>
<g>
	<polygon class="st7" points="250,306.1 108,306.1 100.2,77.7 242.2,77.7 	"/>
	<g>
		<polygon class="st7" points="257,299 115,299 107.3,70.6 249.3,70.6 		"/>
		<polygon class="st8" points="257,299 115,299 107.3,70.6 249.3,70.6 		"/>
	</g>
	<g>
		
			<ellipse transform="matrix(0.7011 -0.7131 0.7131 0.7011 -43.1232 169.4101)" class="st7" cx="180.5" cy="136.1" rx="39.3" ry="40.6"/>
		<path class="st3" d="M213.5,136.1c0.2,5.7-1.1,11-3.4,15.7c-5.2,10.3-15.9,17.3-28.4,17.3c-12.5,0-23.7-7-29.6-17.3
			c-2.7-4.7-4.3-10-4.5-15.7c-0.6-18.2,13.6-33,31.8-33C197.6,103.2,212.8,117.9,213.5,136.1z"/>
		<path class="st9" d="M210,151.8c-5.2,10.3-15.9,17.3-28.4,17.3c-12.5,0-23.7-7-29.6-17.3c8.1-5.5,18-8.8,28.7-8.8
			C191.5,143.1,201.5,146.3,210,151.8z"/>
		
			<ellipse transform="matrix(0.7011 -0.7131 0.7131 0.7011 -35.193 165.7619)" class="st9" cx="180.1" cy="124.9" rx="14.4" ry="14.9"/>
	</g>
	<polygon class="st3" points="228.5,216.3 137.9,216.3 137.3,198.3 227.9,198.3 	"/>
	<polygon class="st3" points="229.6,248.5 139,248.5 138.4,230.5 229,230.5 	"/>
	<path class="st7" d="M194.7,233l-21.8,3c-0.9,0.1-1.5,0.9-1.3,1.8l2.9,14.6c0.2,0.9,1,1.5,1.9,1.4l21.8-3c0.9-0.1,1.5-0.9,1.3-1.8
		l-2.9-14.6C196.4,233.5,195.6,232.8,194.7,233z M188.4,247.8l-4,0.5l-0.4-4.7c-0.8-0.4-1.5-1.1-1.6-2c-0.3-1.4,0.7-2.8,2.2-3
		c1.5-0.2,2.9,0.8,3.2,2.2c0.2,0.9-0.1,1.7-0.8,2.3L188.4,247.8z"/>
	<path class="st7" d="M192.5,232.2L192.5,232.2c-0.8,0.1-1.6-0.4-1.7-1.2l-0.3-1.4c-0.8-3.9-4.5-6.9-8.6-6.6
		c-4.4,0.4-7.3,4.2-6.5,8.4l0.3,1.6c0.2,0.8-0.4,1.5-1.2,1.6l0,0c-0.8,0.1-1.6-0.4-1.7-1.2l-0.3-1.4c-1.1-5.5,2.4-10.8,8-11.7
		c5.9-1,11.7,2.9,12.8,8.7l0.3,1.6C193.8,231.3,193.3,232.1,192.5,232.2z"/>
	<polygon class="st7" points="214.7,273.7 155.7,273.7 155.3,262 214.3,262 	"/>
	<path class="st10" d="M186.2,207.3c0.1,1.8-1.4,3.3-3.2,3.3s-3.3-1.5-3.4-3.3c-0.1-1.8,1.4-3.3,3.2-3.3S186.2,205.5,186.2,207.3z"
		/>
	<path class="st10" d="M172,207.3c0.1,1.8-1.4,3.3-3.2,3.3c-1.8,0-3.3-1.5-3.4-3.3c-0.1-1.8,1.4-3.3,3.2-3.3S172,205.5,172,207.3z"
		/>
	<path class="st10" d="M157.9,207.3c0.1,1.8-1.4,3.3-3.2,3.3c-1.8,0-3.3-1.5-3.4-3.3c-0.1-1.8,1.4-3.3,3.2-3.3
		C156.3,204,157.8,205.5,157.9,207.3z"/>
	<path class="st10" d="M200.4,207.3c0.1,1.8-1.4,3.3-3.2,3.3s-3.3-1.5-3.4-3.3c-0.1-1.8,1.4-3.3,3.2-3.3
		C198.8,204,200.3,205.5,200.4,207.3z"/>
	<path class="st10" d="M214.6,207.3c0.1,1.8-1.4,3.3-3.2,3.3c-1.8,0-3.3-1.5-3.4-3.3c-0.1-1.8,1.4-3.3,3.2-3.3
		S214.5,205.5,214.6,207.3z"/>
</g>
<g>
	<path class="st11" d="M333.9,119.3c1.3,2.1,2.4,4.2,3.6,6.3c1.1,2.1,2.2,4.3,3.2,6.5c2,4.4,3.8,8.9,5.1,13.7
		c0.2,0.6,0.3,1.2,0.5,1.8l0.2,0.9l0.1,0.5l0.1,0.8c0.3,2,0,3.7-0.3,5.2c-0.7,2.9-1.9,5.2-3.1,7.5c-2.5,4.4-5.5,8.1-8.9,11.7
		l-4.2-3.2c2.1-3.9,4.1-8.1,5.6-12c0.7-2,1.3-4,1.5-5.6c0.1-0.8,0-1.5-0.1-1.8l-0.4-1.2c-0.2-0.5-0.3-1-0.5-1.5
		c-1.4-4-3.3-8.1-5.3-12.1c-2-4-4.1-8-6.3-11.8L333.9,119.3z"/>
	<path class="st11" d="M331.2,169.5l-4.6,2.4l5.3,6.2c0,0,3.3-2.2,3.4-5.6L331.2,169.5z"/>
	<polygon class="st11" points="320.5,175.7 326.1,180.2 331.9,178.1 326.6,171.9 	"/>
	<path class="st10" d="M301.2,86.6c-0.1,0.6-0.5,0.9-0.9,0.9c-0.4-0.1-0.6-0.6-0.5-1.1c0.1-0.6,0.5-0.9,0.9-0.9
		C301.1,85.5,301.3,86.1,301.2,86.6z"/>
	<path class="st12" d="M300.7,87.6c0,0-1.9,3-3.6,4.2c0.8,1.1,2.6,1,2.6,1L300.7,87.6z"/>
	<path class="st11" d="M298.9,107.2l0-6.6l8.7,1c0,0-0.1,5.6-5,7.3L298.9,107.2z"/>
	<polygon class="st11" points="301.4,95.9 307.5,97.7 307.6,101.7 298.9,100.6 	"/>
	<path class="st13" d="M307.5,97.7l-6.1-1.8l-1.2,2.3c0.1,3.9,2.5,7,5.6,8.5c1.7-2.2,1.8-5,1.8-5L307.5,97.7z"/>
	<path class="st10" d="M303.8,83.9c0.1,0,0.2,0,0.2-0.1c0.1-0.1,0.1-0.3,0-0.5c-1.3-1.4-2.8-1.1-2.8-1.1c-0.2,0-0.3,0.2-0.3,0.4
		c0,0.2,0.2,0.3,0.4,0.3l0,0c0,0,1.2-0.2,2.2,0.9C303.6,83.9,303.7,83.9,303.8,83.9z"/>
	<path class="st11" d="M316.6,96.7c-1,5.1-1.6,12.3,2,15.7c0,0-1.4,5.2-11,5.2c-10.5,0-5.1-4.6-5.1-4.6c4.4-1.4,4.3-6.3,3.3-10.3
		L316.6,96.7z"/>
	<path class="st7" d="M320.5,115.9c0.9-1.3,0.9-5.5-0.1-6.3c-1.6-1.2-8.5-1.5-17.8,0.7c1,4.1-1.1,6.2-1.1,6.2L320.5,115.9z"/>
	<path class="st7" d="M351.8,353.3c-0.7,0.2-1.4,0.2-1.8-0.1c-0.1-0.1-0.3-0.4-0.2-0.8c0.1-0.2,0.2-0.4,0.4-0.5
		c0.9-0.5,3.1,0.4,3.2,0.5c0.1,0,0.1,0.1,0.1,0.1c0,0.1,0,0.1-0.1,0.2C353.2,352.9,352.5,353.1,351.8,353.3z M350.7,352.2
		c-0.1,0-0.1,0-0.2,0.1c-0.1,0.1-0.2,0.2-0.3,0.3c-0.1,0.3,0,0.4,0.1,0.4c0.4,0.3,1.8,0,2.8-0.4C352.4,352.3,351.3,352,350.7,352.2z
		"/>
	<path class="st7" d="M353.5,352.7C353.5,352.7,353.5,352.7,353.5,352.7c-0.9-0.2-2.6-1.4-2.6-2.2c0-0.1,0-0.4,0.4-0.5
		c0.2-0.1,0.5-0.1,0.7,0.1c0.9,0.5,1.5,2.4,1.6,2.5C353.7,352.6,353.6,352.6,353.5,352.7C353.6,352.7,353.5,352.7,353.5,352.7z
		 M351.5,350.2C351.5,350.2,351.5,350.2,351.5,350.2c-0.3,0.1-0.3,0.2-0.3,0.2c0,0.5,1.1,1.4,2,1.8c-0.2-0.6-0.7-1.7-1.3-2
		C351.8,350.2,351.7,350.2,351.5,350.2z"/>
	<path class="st7" d="M299.9,354.5c-0.9,0-1.8-0.1-2.1-0.5c-0.1-0.1-0.2-0.4,0-0.7c0.1-0.2,0.3-0.3,0.5-0.4c1.2-0.3,3.6,1.1,3.7,1.1
		c0.1,0,0.1,0.1,0.1,0.2c0,0.1-0.1,0.1-0.1,0.1C301.6,354.4,300.7,354.5,299.9,354.5z M298.7,353.1c-0.1,0-0.2,0-0.3,0
		c-0.2,0-0.3,0.1-0.3,0.2c-0.1,0.2-0.1,0.3,0,0.4c0.3,0.5,2.1,0.5,3.4,0.3C300.8,353.7,299.6,353.1,298.7,353.1z"/>
	<path class="st7" d="M302,354.3C302,354.3,301.9,354.3,302,354.3c-0.9-0.4-2.6-1.9-2.5-2.7c0-0.2,0.2-0.4,0.6-0.5
		c0.3,0,0.7,0.1,0.9,0.3c0.9,0.7,1.1,2.6,1.1,2.7C302.2,354.1,302.1,354.2,302,354.3C302.1,354.3,302,354.3,302,354.3z M300.3,351.4
		c0,0-0.1,0-0.1,0c-0.3,0-0.3,0.1-0.3,0.2c-0.1,0.5,1.1,1.7,1.9,2.2c-0.1-0.6-0.3-1.7-0.9-2.2C300.7,351.5,300.5,351.4,300.3,351.4z
		"/>
	<polygon class="st11" points="309.7,354.1 302.7,354.1 302,337.8 309,337.8 	"/>
	<polygon class="st11" points="361.3,350.8 354.5,352.3 347.6,337.2 354.4,335.7 	"/>
	<path class="st10" d="M353.8,351.6l7.7-1.7c0.3-0.1,0.6,0.1,0.7,0.3l2.7,5.8c0.3,0.6-0.1,1.3-0.7,1.4c-2.7,0.5-4.1,0.7-7.4,1.4
		c-2.1,0.5-6.8,1.6-9.7,2.2c-2.8,0.6-3.9-2.1-2.8-2.7c5-2.3,7.2-4.3,8.5-6.2C353,352,353.4,351.7,353.8,351.6z"/>
	<path class="st10" d="M302.7,353.3h7.7c0.3,0,0.5,0.2,0.6,0.5l1.4,6.3c0.1,0.6-0.3,1.3-1,1.3c-2.8,0-6.8-0.2-10.3-0.2
		c-4.1,0-7.6,0.2-12.4,0.2c-2.9,0-3.7-2.9-2.5-3.2c5.5-1.2,10-1.3,14.8-4.3C301.6,353.5,302.1,353.3,302.7,353.3z"/>
	<g>
		<path class="st7" d="M331.2,114c6.6,1.5,12,18.3,12,18.3L330,142.5c0,0-4.9-4.6-7-13C320.7,120.6,324.4,112.5,331.2,114z"/>
		<path class="st14" d="M331.2,114c6.6,1.5,12,18.3,12,18.3L330,142.5c0,0-4.9-4.6-7-13C320.7,120.6,324.4,112.5,331.2,114z"/>
	</g>
	<path class="st11" d="M296.5,134.1c-1.6,1.8-3.3,3.4-5,5c-0.8,0.8-1.7,1.6-2.6,2.4l-1.3,1.2l-0.3,0.3c-0.2,0.1-0.4,0.3-0.6,0.5
		c-0.4,0.3-0.9,0.7-1.9,1.1c-0.5,0.2-1.2,0.5-2.4,0.5c-0.6,0-1.4-0.1-2.1-0.4c-0.8-0.3-1.5-0.8-2-1.3c-1-1.1-1.4-2-1.6-2.6
		c-0.2-0.6-0.2-1.1-0.3-1.5c-0.1-0.8,0-1.3,0-1.8c0-0.5,0.1-0.9,0.2-1.3c0.3-1.5,0.7-2.8,1.2-4c0.5-1.2,1-2.4,1.6-3.6
		c0.6-1.3,1.2-2.2,1.9-3.3c2.5-4.1,5.4-7.9,8.5-11.5c3.1-3.5,6.5-6.8,10.3-9.7l3.7,3.8c-2.6,3.5-5.1,7.2-7.5,10.8
		c-2.3,3.7-4.5,7.4-6.4,11.2c-0.4,0.9-1,2-1.3,2.8c-0.4,0.9-0.7,1.8-0.9,2.7c-0.3,0.9-0.5,1.8-0.6,2.5c0,0.2,0,0.3,0,0.4
		c0,0.1,0,0.1,0-0.1c0-0.1,0-0.3-0.1-0.7c-0.1-0.3-0.3-1-1.2-1.9c-0.4-0.4-1-0.8-1.6-1c-0.6-0.2-1.3-0.3-1.7-0.3
		c-0.9,0-1.3,0.2-1.6,0.3c-0.5,0.2-0.5,0.3-0.5,0.2l0.4-0.3l1.2-1.1l2.4-2.2c1.6-1.5,3.2-3.1,4.7-4.6L296.5,134.1z"/>
	<path class="st13" d="M325.5,126.4c3.6,3.5,4.7,10,5,15.6l-0.6,0.5c0,0-4.9-4.6-7-13c-0.1-0.5-0.2-1.1-0.3-1.6L325.5,126.4z"/>
	<g>
		<path class="st7" d="M289.5,121.1c-1.4,7.6-2.3,23.2,1.8,54.1H329c0.3-5.8-3.4-33.9,2.2-61.2c0,0-6.4-1.3-12.6-1.6
			c-4.8-0.2-11.8-0.4-16,0c-1.8,0.2-3.5,0.4-5,0.7C293.5,113.8,290.3,117,289.5,121.1z"/>
		<path class="st14" d="M289.5,121.1c-1.4,7.6-2.3,23.2,1.8,54.1H329c0.3-5.8-3.4-33.9,2.2-61.2c0,0-6.4-1.3-12.6-1.6
			c-4.8-0.2-11.8-0.4-16,0c-1.8,0.2-3.5,0.4-5,0.7C293.5,113.8,290.3,117,289.5,121.1z"/>
	</g>
	<path class="st13" d="M295.3,132.3l-6.8-1.6c-0.2,4.1-0.2,9.2,0.1,15.5C291.7,142.7,295.7,137.1,295.3,132.3z"/>
	<g>
		<polygon class="st13" points="302,337.8 302.4,346.2 309.4,346.2 309,337.8 		"/>
		<polygon class="st13" points="354.5,335.7 347.6,337.2 351.1,345 358,343.5 		"/>
	</g>
	<path class="st11" d="M319.9,89.2c-1.8,6.7-2.5,10.8-6.7,13.6c-6.3,4.2-14.1-0.6-14.3-7.8c-0.2-6.4,2.8-16.4,10-17.7
		C316.1,75.9,321.7,82.5,319.9,89.2z"/>
	<path class="st10" d="M304.1,89.5c-0.3-0.9-1.9-7.9-0.4-9.7c1.5-1.8,18.1-0.5,20.6,1.9c4.1,4,1.3,7.6-3.2,12.2
		c-3.4,3.5-3.5,7.4-5.2,8c-3,1-7.6,0.1-8.5-3.1C306.5,95.6,304.1,89.5,304.1,89.5z"/>
	<path class="st10" d="M322.3,73.8c-5.9-2.5-16.9,0.3-22.9-1.2c-0.2,3.1,1.6,8,7.6,9.4c0,0,8.5,1.6,15,1.4
		C328.5,83.1,327.3,75.9,322.3,73.8z"/>
	<path class="st10" d="M323.2,81.9c0,0,3.6,0.4,6.2-1.2C330.5,83.4,324.5,84.1,323.2,81.9z"/>
	<path class="st11" d="M307.4,89.7c-0.1,1.8-1,3.5-2,4.7c-1.5,1.7-3.1,0.6-3.4-1.4c-0.2-1.9,0.3-5,2.1-5.9
		C306,86.2,307.5,87.7,307.4,89.7z"/>
	<path class="st7" d="M304.7,175.2c0,0,8,53.8,12.4,73.9c4.8,22.1,30.5,95,30.5,95l12.6-2.7c0,0-18-59.5-22-90.3
		c-3.1-23.7-9.2-75.9-9.2-75.9H304.7z"/>
	<path class="st10" d="M344.6,339.9c-0.1,0,2.3,4.6,2.3,4.6l14.2-3.1l-1.2-4.3L344.6,339.9z"/>
	<path class="st15" d="M309.7,194.3c9.2,1.8,8.3,36.2,7.1,53.9c-2.7-12.5-6.6-36.6-9.2-53.7C308.3,194.3,309,194.2,309.7,194.3z"/>
	<path class="st7" d="M291.3,175.2c0,0-1,52.6-0.2,74c0.8,22.3,8.6,95.4,8.6,95.4h11.9c0,0,0.4-71.7,1-93.7
		c0.6-23.9,3.5-75.7,3.5-75.7H291.3z"/>
	<path class="st10" d="M297.4,339.8c-0.1,0,0.7,4.9,0.7,4.9h14.5l0.4-4.4L297.4,339.8z"/>
	<g>
		<path class="st7" d="M304.3,123.4c3.4,9.1-16.4,19.8-16.4,19.8l-8.6-11c0,0,5.7-11.4,12.7-16.5
			C300.7,109.3,301.7,116.5,304.3,123.4z"/>
		<path class="st14" d="M304.3,123.4c3.4,9.1-16.4,19.8-16.4,19.8l-8.6-11c0,0,5.7-11.4,12.7-16.5
			C300.7,109.3,301.7,116.5,304.3,123.4z"/>
	</g>
</g>
<g>
	<ellipse class="st7" cx="381.9" cy="31.4" rx="36.1" ry="23"/>
	<path class="st3" d="M368.8,43c-2,0-4-0.6-5.7-1.8c-2.3-1.6-3.8-3.9-4.3-6.6c-0.9-5.2,2.6-10.4,7.7-11.6l0,0
		c4.2-1,8.5,0.8,10.8,4.5l23.2-4.8c1.9-0.4,3.8,0.7,4.2,2.5c0.2,0.9,0.1,1.9-0.4,2.7c-0.5,0.8-1.3,1.4-2.3,1.6l-0.6,0.1
		c-0.2,0-0.3,0.1-0.4,0.3c-0.1,0.2-0.1,0.3,0,0.5l0.4,1.1c0.3,0.7,0,1.5-0.6,1.9c-0.5,0.3-0.8,0.8-0.9,1.4c-0.1,0.7-0.6,1.3-1.2,1.4
		l-0.5,0.1c-0.6,0.1-1.3-0.2-1.7-0.8c-0.4-0.7-1.2-1.1-2.1-0.9c-0.8,0.2-1.4,0.8-1.5,1.7c-0.1,0.7-0.6,1.3-1.2,1.4l-0.5,0.1
		c-0.6,0.1-1.3-0.2-1.7-0.8c-0.3-0.5-0.8-0.9-1.4-0.9c-0.7-0.1-1.3-0.8-1.3-1.5l0-1.1c0-0.2-0.1-0.3-0.2-0.5
		c-0.1-0.1-0.3-0.2-0.5-0.1l-7.4,1.5c-0.6,4.2-3.8,7.5-8,8.4C370.2,42.9,369.5,43,368.8,43z M366.8,24c-4.6,1.1-7.8,5.7-6.9,10.4
		c0.4,2.5,1.8,4.6,3.8,6c2.1,1.4,4.5,1.9,7,1.4c3.9-0.8,6.8-4,7.2-7.9l0-0.4l8.1-1.7c0.5-0.1,1,0,1.3,0.3c0.4,0.3,0.6,0.7,0.6,1.2
		l0,1.1c0,0.3,0.2,0.5,0.5,0.6c0.9,0.1,1.7,0.7,2.1,1.4c0.1,0.2,0.3,0.4,0.6,0.3l0.5-0.1c0.3-0.1,0.4-0.3,0.4-0.5
		c0.1-1.3,1.1-2.3,2.3-2.5c1.2-0.3,2.5,0.3,3.1,1.4c0.1,0.2,0.3,0.4,0.6,0.3l0.5-0.1c0.3-0.1,0.4-0.3,0.4-0.5
		c0.1-0.9,0.6-1.7,1.4-2.1c0.2-0.1,0.3-0.4,0.2-0.7l-0.4-1.1c-0.2-0.4-0.1-0.9,0.1-1.4c0.2-0.4,0.6-0.7,1.1-0.8l0.6-0.1
		c0.7-0.1,1.2-0.5,1.6-1.1c0.4-0.6,0.5-1.3,0.3-1.9c-0.3-1.3-1.7-2.1-3.1-1.8l-23.9,4.9l-0.2-0.3C374.8,24.8,370.8,23.1,366.8,24
		L366.8,24z M368.9,39.3c-1.2,0-2.4-0.4-3.5-1.1c-1.4-0.9-2.4-2.4-2.8-4.1c-0.3-1.7,0-3.4,0.9-4.8c0.9-1.4,2.4-2.4,4.1-2.7
		c1.7-0.3,3.4,0,4.8,0.9c1.4,0.9,2.4,2.4,2.7,4.1c0.3,1.7,0,3.4-0.9,4.8c-0.9,1.4-2.4,2.4-4.1,2.8l0,0
		C369.7,39.2,369.3,39.3,368.9,39.3z M368.9,27.4c-0.4,0-0.7,0-1.1,0.1c-1.4,0.3-2.6,1.1-3.4,2.3c-0.8,1.2-1.1,2.6-0.8,4.1
		c0.3,1.4,1.1,2.6,2.3,3.4c1.2,0.8,2.6,1.1,4.1,0.8l0,0c1.4-0.3,2.6-1.1,3.4-2.3c0.8-1.2,1.1-2.6,0.8-4.1c-0.3-1.4-1.1-2.6-2.3-3.4
		C371,27.8,369.9,27.4,368.9,27.4z"/>
	<ellipse class="st9" cx="352.5" cy="60.3" rx="11.9" ry="7.6"/>
	<ellipse class="st16" cx="333.6" cy="67.9" rx="4.9" ry="3.1"/>
</g>
</svg>